<?xml version="1.0" standalone="no"?>
<!DOCTYPE svg PUBLIC "-//W3C//DTD SVG 20010904//EN"
 "http://www.w3.org/TR/2001/REC-SVG-20010904/DTD/svg10.dtd">
<svg version="1.0" xmlns="http://www.w3.org/2000/svg"
 width="700.000000pt" height="700.000000pt" viewBox="0 0 700.000000 700.000000"
 preserveAspectRatio="xMidYMid meet">
<metadata>
Created by potrace 1.14, written by Peter Selinger 2001-2017
</metadata>
<g transform="translate(0.000000,700.000000) scale(0.100000,-0.100000)"
fill="#000000" stroke="none">
<path d="M3278 6995 c-1 -1 -42 -5 -89 -9 -47 -4 -95 -8 -105 -10 -10 -2 -46
-7 -79 -11 -32 -4 -68 -9 -80 -11 -11 -2 -45 -8 -75 -14 -372 -68 -761 -213
-1102 -411 -108 -63 -294 -183 -308 -199 -3 -3 -41 -33 -84 -65 -44 -33 -123
-99 -177 -147 -526 -472 -879 -1043 -1065 -1728 -3 -13 104 -15 931 -15 l935
0 36 55 c125 187 300 375 451 483 97 69 224 143 313 181 36 15 79 34 95 41 37
16 182 59 250 74 193 42 484 50 665 17 369 -67 684 -230 946 -491 279 -278
440 -605 500 -1015 10 -68 10 -366 0 -440 -32 -238 -127 -511 -236 -680 -17
-25 -33 -52 -37 -60 -19 -40 -136 -184 -212 -261 -103 -103 -184 -170 -294
-243 -75 -49 -255 -146 -272 -146 -4 0 -21 -7 -38 -15 -57 -26 -218 -75 -301
-90 -45 -8 -94 -18 -111 -22 -16 -4 -470 -9 -1007 -10 l-978 -4 53 108 c30 59
67 133 82 163 16 30 30 57 30 60 1 5 565 1131 611 1220 15 30 28 57 29 60 1 3
15 33 33 67 18 34 32 65 32 68 0 3 -393 5 -873 5 l-872 0 -270 -540 c-149
-297 -345 -691 -437 -875 -148 -296 -167 -338 -156 -358 6 -12 14 -29 18 -37
4 -8 196 -392 426 -853 l419 -838 1460 4 c803 2 1471 6 1485 9 14 4 56 9 93
13 37 3 78 8 90 11 12 2 38 6 57 9 19 3 46 7 60 10 14 3 41 8 60 11 84 14 286
67 430 114 178 57 568 235 660 300 15 11 33 20 39 20 6 0 11 5 11 10 0 6 5 10
10 10 15 0 220 141 330 227 152 118 324 280 450 422 36 41 70 79 76 85 6 6 48
61 94 121 150 197 277 405 383 628 26 53 47 99 47 102 0 2 11 28 24 57 57 127
151 421 182 573 17 81 54 301 59 350 4 33 9 71 11 85 9 47 11 525 3 605 -15
165 -21 220 -24 225 -2 3 -6 30 -10 60 -9 75 -69 337 -99 435 -135 446 -345
845 -627 1195 -432 536 -998 927 -1653 1141 -145 48 -395 108 -516 124 -19 3
-46 7 -60 10 -13 2 -52 7 -86 11 -33 3 -74 8 -90 10 -32 5 -540 14 -546 9z"/>
</g>
</svg>
